HIERARCHY
ROOT Hips
{
  OFFSET 0.0000 0.0000 0.0000
  CHANNELS 6 Xposition Yposition Zposition Zrotation Xrotation Yrotation
  JOINT LeftHip
  {
    OFFSET 3.4300 0.0000 0.0000
    CHANNELS 3 Zrotation Xrotation Yrotation
    JOINT LeftKnee
    {
      OFFSET -0.0000 -18.4700 0.0000
      CHANNELS 3 Zrotation Xrotation Yrotation
      JOINT LeftAnkle
      {
        OFFSET 0.0000 -17.9500 0.0000
        CHANNELS 3 Zrotation Xrotation Yrotation
        End Site
        {
            OFFSET 0.0000 -3.1200 0.0000
        }
      }
    }
  }
  JOINT RightHip
  {
    OFFSET -3.4300 0.0000 0.0000
    CHANNELS 3 Zrotation Xrotation Yrotation
    JOINT RightKnee
    {
      OFFSET 0.0000 -18.4700 0.0000
      CHANNELS 3 Zrotation Xrotation Yrotation
      JOINT RightAnkle
      {
        OFFSET 0.0000 -17.9500 0.0000
        CHANNELS 3 Zrotation Xrotation Yrotation
        End Site
        {
            OFFSET 0.0000 -3.1200 -0.0000
        }
      }
    }
  }
  JOINT Chest
  {
    OFFSET -0.0000 4.5700 0.0000
    CHANNELS 3 Zrotation Xrotation Yrotation
    JOINT Chest2
    {
      OFFSET 0.0000 6.5700 0.0000
      CHANNELS 3 Zrotation Xrotation Yrotation
      JOINT LeftCollar
      {
        OFFSET 1.0600 4.1900 1.7600
        CHANNELS 3 Zrotation Xrotation Yrotation
        JOINT LeftShoulder
        {
          OFFSET 5.8100 0.0000 0.0000
          CHANNELS 3 Zrotation Xrotation Yrotation
          JOINT LeftElbow
          {
            OFFSET 0.0000 -12.0800 -0.0000
            CHANNELS 3 Zrotation Xrotation Yrotation
            JOINT LeftWrist
            {
              OFFSET 0.0000 -9.8200 0.0000
              CHANNELS 3 Zrotation Xrotation Yrotation
              End Site
              {
                  OFFSET -0.0000 -7.3700 0.0000
              }
            }
          }
        }
      }
      JOINT RightCollar
      {
        OFFSET -1.0600 4.1900 1.7600
        CHANNELS 3 Zrotation Xrotation Yrotation
        JOINT RightShoulder
        {
          OFFSET -6.0600 0.0000 0.0000
          CHANNELS 3 Zrotation Xrotation Yrotation
          JOINT RightElbow
          {
            OFFSET 0.0000 -11.0800 0.0000
            CHANNELS 3 Zrotation Xrotation Yrotation
            JOINT RightWrist
            {
              OFFSET 0.0000 -9.8200 0.0000
              CHANNELS 3 Zrotation Xrotation Yrotation
              End Site
              {
                  OFFSET 0.0000 -7.1400 0.0000
              }
            }
          }
        }
      }
    }
    JOINT Neck
    {
      OFFSET 0.0000 10.6200 0.0000
      CHANNELS 3 Zrotation Xrotation Yrotation
      JOINT Head
      {
        OFFSET -0.0000 5.1900 0.0000
        CHANNELS 3 Zrotation Xrotation Yrotation
        End Site
        {
            OFFSET 0.0000 4.1400 0.0000
        }
      }
    }
  }
}
MOTION
Frames:	24
Frame Time:	0.033333
44.9547 41.1776 1.6202 -5.94 -3.89 -32.96 10.17 -5.80 9.14 -4.99 27.17 6.19 -4.58 -13.15 -0.57 -11.17 3.78 -12.75 0.99 5.47 -20.19 9.06 3.40 -0.34 3.36 16.35 -7.17 0.00 0.00 0.00 3.36 -0.13 5.84 -2.69 -50.78 -56.40 -74.70 -73.36 -99.38 26.61 -2.87 1.09 4.60 0.19 -2.00 -30.54 -31.84 -20.71 15.52 -68.10 36.69 -32.67 4.26 0.74 -6.05 7.80 6.19 7.55 -17.13 3.55 
44.9547 41.1776 1.6202 -5.94 -3.89 -32.96 10.17 -5.80 9.14 -4.99 27.17 6.19 -4.58 -13.15 -0.57 -11.17 3.78 -12.75 0.99 5.47 -20.19 9.06 3.40 -0.34 3.36 16.35 -7.17 0.00 0.00 0.00 3.36 -0.13 5.84 -2.69 -50.78 -56.40 -74.70 -73.36 -99.38 26.61 -2.87 1.09 4.60 0.19 -2.00 -30.54 -31.84 -20.71 15.52 -68.10 36.69 -32.67 4.26 0.74 -6.05 7.80 6.19 7.55 -17.13 3.55 
44.9662 41.1711 1.5957 -5.91 -3.91 -32.82 10.12 -5.94 9.12 -4.93 27.27 6.06 -4.58 -13.14 -0.56 -11.36 3.58 -12.51 1.27 5.93 -20.56 9.05 3.15 -0.31 3.18 16.24 -6.80 0.00 0.00 0.00 3.46 -0.13 5.98 -3.44 -51.37 -57.38 -76.54 -73.04 -101.45 28.26 -3.78 1.39 4.85 0.21 -1.85 -32.00 -32.46 -21.79 15.08 -67.18 37.85 -35.37 3.06 0.42 -5.62 8.51 5.90 7.23 -17.70 3.46 
44.9700 41.1674 1.5687 -5.87 -3.94 -32.61 10.07 -6.02 9.15 -4.84 27.29 5.79 -4.56 -13.08 -0.55 -11.69 3.38 -12.24 1.87 6.51 -21.07 8.92 2.79 -0.23 3.00 16.22 -6.56 0.00 0.00 0.00 4.52 -0.15 6.86 -5.57 -51.47 -58.78 -80.87 -72.74 -106.34 30.19 -5.00 1.82 5.12 0.24 -1.62 -34.16 -33.48 -23.47 15.08 -66.46 39.57 -38.50 1.76 0.01 -5.44 8.41 5.67 7.24 -17.57 3.29 
44.9830 41.1636 1.5111 -5.86 -4.01 -32.26 10.04 -6.27 9.07 -4.73 27.52 5.50 -4.55 -13.05 -0.55 -11.81 3.30 -12.57 2.05 6.85 -21.08 8.91 2.63 -0.21 2.78 16.22 -6.27 0.00 0.00 0.00 5.43 -0.15 7.68 -7.82 -51.96 -59.38 -85.11 -72.71 -110.01 30.11 -6.58 2.24 5.88 0.32 -1.17 -37.20 -34.44 -25.91 14.96 -65.97 41.21 -40.80 0.68 -0.39 -4.91 8.32 5.23 7.01 -17.41 3.04 
45.0011 41.1525 1.4562 -5.81 -4.07 -31.79 9.97 -6.69 8.75 -4.65 27.95 5.35 -4.53 -13.11 -0.54 -11.89 3.19 -13.15 2.04 7.25 -20.94 8.98 2.48 -0.21 2.53 16.19 -5.75 0.00 0.00 0.00 6.18 -0.15 8.45 -11.45 -52.43 -61.53 -85.44 -72.55 -109.36 30.19 -8.15 2.66 7.05 0.43 -0.55 -40.77 -34.95 -28.92 14.58 -65.87 43.09 -42.52 0.20 -0.59 -4.54 4.81 3.53 7.16 -14.06 1.29 
44.9899 41.1407 1.4196 -5.72 -4.14 -31.35 9.93 -6.97 8.46 -4.74 28.20 5.22 -4.48 -13.12 -0.54 -12.00 3.08 -13.75 2.03 7.68 -20.75 9.03 2.26 -0.21 2.22 16.21 -4.98 0.00 0.00 0.00 6.66 -0.14 8.99 -16.18 -52.32 -65.16 -81.08 -72.81 -104.55 29.75 -10.02 3.12 7.69 0.51 -0.15 -43.56 -35.13 -32.07 14.12 -65.90 44.46 -43.55 -0.09 -0.73 -4.23 3.34 0.44 7.41 -12.02 -1.86 
44.9887 41.1125 1.3628 -5.68 -4.31 -30.77 9.86 -7.22 8.09 -4.75 28.52 5.02 -4.46 -13.13 -0.53 -12.18 2.90 -14.55 2.04 8.58 -20.44 9.13 1.83 -0.20 1.74 16.35 -4.28 0.00 0.00 0.00 4.49 -0.17 7.24 -16.52 -53.38 -65.37 -75.34 -73.77 -98.11 26.18 -12.07 3.21 8.85 0.67 0.60 -47.05 -35.56 -35.43 12.87 -65.41 44.39 -43.82 0.13 -0.64 -2.39 3.04 -3.06 6.37 -11.11 -4.69 
45.0175 41.0536 1.2924 -5.69 -4.57 -29.98 9.75 -7.73 7.69 -4.67 29.38 4.61 -4.40 -13.33 -0.52 -12.55 2.43 -15.53 2.12 10.33 -20.10 9.36 1.03 -0.17 1.29 16.75 -4.13 0.00 0.00 0.00 2.15 -0.11 5.25 -15.78 -55.53 -65.65 -75.26 -74.57 -97.30 23.24 -11.58 2.74 9.41 0.80 1.23 -49.84 -36.40 -38.55 11.17 -64.64 43.61 -43.37 0.78 -0.38 -1.35 2.88 -6.34 5.78 -10.39 -7.60 
45.0234 40.9706 1.2366 -5.76 -4.82 -29.24 9.86 -8.20 7.70 -4.64 30.39 3.85 -4.27 -13.66 -0.51 -13.03 1.81 -16.38 2.38 12.59 -19.85 9.59 -0.07 -0.12 1.00 17.19 -4.15 0.00 0.00 0.00 0.59 -0.02 3.75 -14.92 -56.56 -65.35 -80.41 -75.26 -102.64 21.03 -10.29 2.23 9.41 0.84 1.49 -51.28 -36.94 -41.01 10.07 -64.48 43.47 -42.31 1.28 -0.17 0.11 4.54 -9.60 5.04 -11.13 -10.32 
45.0052 40.9188 1.1286 -5.92 -5.07 -28.59 10.06 -8.61 8.04 -4.32 31.23 2.72 -4.21 -13.83 -0.49 -13.22 1.49 -16.99 2.62 14.08 -19.81 9.60 -0.74 -0.08 0.82 17.67 -4.08 0.00 0.00 0.00 -0.86 0.11 2.27 -13.92 -57.67 -64.94 -82.03 -75.68 -103.94 19.76 -9.99 2.04 10.03 0.98 2.13 -53.68 -37.35 -43.53 8.47 -64.04 43.07 -40.97 1.92 0.07 2.49 6.68 -12.81 3.62 -12.53 -12.59 
44.9857 40.8946 1.0398 -5.99 -5.22 -28.12 10.29 -8.79 8.44 -4.24 31.60 1.80 -4.06 -13.84 -0.47 -13.25 1.31 -17.53 2.64 14.93 -19.67 9.58 -1.03 -0.08 0.57 18.02 -3.95 0.00 0.00 0.00 -1.63 0.20 1.43 -13.60 -58.29 -64.94 -83.90 -75.94 -105.64 19.24 -9.71 1.94 10.20 1.06 2.58 -55.60 -37.92 -45.56 6.51 -63.02 42.09 -40.19 2.50 0.28 3.80 7.18 -15.05 2.93 -12.29 -14.33 
44.9392 40.8813 0.9692 -6.01 -5.28 -27.84 10.52 -8.83 8.71 -4.25 31.62 1.24 -4.02 -13.75 -0.46 -13.31 1.16 -18.04 2.77 15.49 -19.46 9.44 -1.25 -0.06 0.36 18.26 -3.81 0.00 0.00 0.00 -1.87 0.24 1.15 -13.64 -58.72 -65.40 -85.51 -75.79 -107.15 19.83 -9.40 1.95 10.10 1.09 2.78 -56.59 -38.42 -46.91 5.30 -62.05 41.35 -40.16 2.56 0.31 4.52 9.96 -16.63 3.53 -14.03 -15.75 
44.9298 40.8468 0.8472 -6.00 -5.29 -27.46 10.63 -9.26 8.57 -4.23 31.96 1.01 -4.04 -13.71 -0.46 -13.47 0.82 -18.80 2.92 16.24 -19.10 9.27 -1.51 -0.05 0.19 18.48 -3.72 0.00 0.00 0.00 -1.86 0.24 1.10 -14.12 -59.42 -66.28 -84.85 -75.67 -105.86 20.24 -9.59 2.02 10.18 1.16 3.14 -57.82 -38.97 -48.42 4.30 -60.99 40.59 -40.01 2.53 0.29 5.65 11.52 -17.78 3.29 -15.32 -16.48 
44.9269 40.8088 0.7237 -6.01 -5.26 -27.07 10.80 -9.74 8.34 -4.34 32.34 0.89 -4.02 -13.69 -0.46 -13.61 0.44 -19.55 3.09 17.04 -18.76 9.12 -1.79 -0.04 0.02 18.71 -3.59 0.00 0.00 0.00 -1.70 0.23 1.20 -15.00 -60.18 -67.49 -84.30 -75.61 -104.63 20.38 -9.67 2.05 10.04 1.17 3.22 -58.28 -39.30 -49.57 3.76 -60.36 40.19 -39.89 2.49 0.27 6.10 10.91 -18.44 3.07 -14.83 -16.97 
44.8780 40.7722 0.6112 -6.14 -5.15 -26.71 11.27 -10.21 8.19 -4.65 32.79 0.79 -3.97 -13.76 -0.47 -13.57 0.14 -19.91 3.45 17.69 -18.89 8.91 -2.12 0.00 0.13 18.91 -3.56 0.00 0.00 0.00 -1.47 0.20 1.41 -15.70 -60.67 -68.34 -84.69 -75.52 -104.58 20.48 -9.71 2.07 9.83 1.14 3.15 -58.27 -39.40 -50.72 2.92 -60.25 38.88 -40.00 2.80 0.39 5.83 10.39 -18.79 3.39 -14.30 -17.47 
44.8383 40.7345 0.4716 -6.24 -5.03 -26.20 11.65 -10.83 7.86 -4.86 33.28 0.69 -3.96 -13.77 -0.47 -13.48 -0.19 -20.33 3.69 18.34 -19.10 8.75 -2.43 0.03 0.39 19.09 -3.64 0.00 0.00 0.00 -1.73 0.24 1.07 -15.00 -61.18 -68.04 -85.61 -75.49 -105.12 20.47 -9.80 2.08 9.66 1.12 3.07 -58.23 -39.42 -51.54 2.32 -59.80 37.60 -40.31 2.94 0.45 5.84 10.63 -19.27 3.56 -14.63 -17.97 
44.7953 40.6957 0.3659 -6.31 -4.88 -25.69 12.02 -11.36 7.61 -5.13 33.68 0.55 -3.90 -13.80 -0.48 -13.39 -0.52 -20.81 3.82 19.01 -19.19 8.70 -2.74 0.06 0.61 19.20 -3.72 0.00 0.00 0.00 -1.79 0.25 0.99 -14.80 -61.37 -68.00 -86.60 -75.49 -105.92 20.36 -9.95 2.10 9.55 1.10 3.00 -58.18 -39.40 -52.08 2.00 -59.19 36.57 -40.56 2.92 0.44 6.02 10.59 -19.73 3.47 -14.79 -18.38 
44.7207 40.7056 0.2958 -6.29 -4.83 -25.31 12.21 -11.45 7.48 -5.24 33.47 0.32 -3.93 -13.61 -0.48 -13.27 -0.52 -21.13 3.88 19.05 -19.30 8.58 -2.82 0.07 0.72 19.31 -3.76 0.00 0.00 0.00 -1.60 0.22 1.24 -14.66 -61.01 -67.89 -87.99 -75.41 -107.50 20.52 -10.15 2.15 9.72 1.12 3.07 -58.13 -39.18 -52.62 2.05 -59.15 36.15 -40.46 2.94 0.45 5.96 10.67 -20.05 3.65 -14.92 -18.75 
44.7180 40.6795 0.2255 -6.34 -4.77 -24.89 12.29 -11.83 7.17 -5.26 33.71 0.24 -3.94 -13.61 -0.48 -13.28 -0.65 -21.47 4.03 19.43 -19.42 8.54 -2.99 0.09 0.84 19.37 -3.85 0.00 0.00 0.00 -1.50 0.21 1.38 -14.63 -60.64 -68.30 -85.95 -75.36 -105.74 21.16 -10.24 2.24 10.08 1.18 3.25 -58.47 -38.85 -53.10 1.76 -59.07 35.38 -40.10 3.01 0.47 6.56 11.01 -20.49 3.44 -15.42 -18.94 
44.6965 40.6530 0.1992 -6.40 -4.71 -24.68 12.43 -12.02 7.04 -5.34 33.90 0.19 -3.97 -13.73 -0.49 -13.26 -0.81 -21.60 4.13 19.82 -19.53 8.56 -3.19 0.10 0.95 19.40 -3.89 0.00 0.00 0.00 -1.69 0.23 1.18 -13.92 -60.45 -68.13 -84.89 -75.29 -105.00 21.55 -9.76 2.19 10.15 1.19 3.28 -58.50 -38.76 -53.14 1.46 -58.82 34.79 -39.91 2.96 0.45 6.79 11.10 -20.68 3.36 -15.65 -19.05 
44.6628 40.6521 0.1721 -6.38 -4.73 -24.55 12.45 -11.97 6.97 -5.31 33.79 0.09 -4.06 -13.73 -0.49 -13.26 -0.86 -21.51 4.23 20.01 -19.76 8.55 -3.32 0.11 0.95 19.46 -3.92 0.00 0.00 0.00 -1.47 0.20 1.43 -14.11 -60.41 -68.43 -84.22 -75.15 -104.29 21.98 -9.65 2.21 9.99 1.15 3.15 -58.15 -38.81 -52.99 1.56 -58.83 34.79 -39.89 2.91 0.43 6.47 11.06 -20.65 3.66 -15.58 -19.16 
44.6331 40.6553 0.1423 -6.35 -4.77 -24.43 12.45 -11.88 6.89 -5.32 33.55 0.02 -4.11 -13.64 -0.49 -13.21 -0.85 -21.39 4.22 20.05 -19.99 8.57 -3.37 0.10 0.96 19.52 -3.95 0.00 0.00 0.00 -1.33 0.18 1.60 -14.23 -60.40 -68.38 -83.38 -75.11 -103.33 22.01 -9.91 2.26 9.93 1.14 3.10 -57.99 -38.80 -52.87 1.61 -58.87 34.87 -39.95 2.94 0.44 6.23 11.10 -20.63 3.92 -15.61 -19.26 
44.5882 40.6666 0.1264 -6.34 -4.79 -24.37 12.49 -11.80 6.83 -5.34 33.39 -0.01 -4.19 -13.59 -0.50 -13.12 -0.82 -21.37 4.17 20.03 -20.04 8.58 -3.40 0.09 0.98 19.61 -3.97 0.00 0.00 0.00 -1.16 0.16 1.81 -14.22 -60.24 -68.05 -83.56 -75.08 -103.58 21.87 -10.03 2.27 9.98 1.14 3.09 -57.99 -38.71 -52.57 1.69 -58.98 34.85 -40.08 3.08 0.49 5.92 10.94 -20.59 4.15 -15.47 -19.36 
